<?xml version="1.0" encoding="utf-8"?>
<!-- Generator: Adobe Illustrator 15.1.0, SVG Export Plug-In . SVG Version: 6.00 Build 0)  -->
<!DOCTYPE svg PUBLIC "-//W3C//DTD SVG 1.1//EN" "http://www.w3.org/Graphics/SVG/1.1/DTD/svg11.dtd">
<svg version="1.1" id="Layer_1" xmlns="http://www.w3.org/2000/svg" xmlns:xlink="http://www.w3.org/1999/xlink" x="0px" y="0px"
	 width="16px" height="16px" viewBox="0 0 16 16" enable-background="new 0 0 16 16" xml:space="preserve">
<path d="M8.274,6.042H2.351C1.606,6.042,1,5.436,1,4.691V2.351C1,1.606,1.606,1,2.351,1h5.924C9.02,1,9.625,1.606,9.625,2.351v2.341
	C9.625,5.436,9.02,6.042,8.274,6.042z M2.351,2C2.157,2,2,2.157,2,2.351v2.341c0,0.193,0.157,0.351,0.351,0.351h5.924
	c0.193,0,0.351-0.157,0.351-0.351V2.351C8.625,2.157,8.468,2,8.274,2H2.351z"/>
<path d="M8.232,15.042H2.309c-0.745,0-1.351-0.605-1.351-1.351V7.917c0-0.745,0.606-1.351,1.351-1.351h5.923
	c0.745,0,1.351,0.606,1.351,1.351v5.775C9.583,14.437,8.978,15.042,8.232,15.042z M2.309,7.566c-0.193,0-0.351,0.157-0.351,0.351
	v5.775c0,0.193,0.157,0.351,0.351,0.351h5.923c0.193,0,0.351-0.157,0.351-0.351V7.917c0-0.193-0.157-0.351-0.351-0.351H2.309z"/>
<path d="M13.649,15.083h-2.132c-0.745,0-1.351-0.605-1.351-1.351V2.351C10.167,1.606,10.772,1,11.518,1h2.132
	C14.395,1,15,1.606,15,2.351v11.382C15,14.478,14.395,15.083,13.649,15.083z M11.518,2c-0.193,0-0.351,0.157-0.351,0.351v11.382
	c0,0.193,0.157,0.351,0.351,0.351h2.132c0.193,0,0.351-0.157,0.351-0.351V2.351C14,2.157,13.843,2,13.649,2H11.518z"/>
<circle cx="5.354" cy="2.979" r="0.594"/>
<circle cx="5.354" cy="8.542" r="0.594"/>
<circle cx="12.167" cy="7.667" r="0.594"/>
</svg>
