<?xml version="1.0" encoding="utf-8"?>
<!-- Generator: Adobe Illustrator 15.1.0, SVG Export Plug-In . SVG Version: 6.00 Build 0)  -->
<!DOCTYPE svg PUBLIC "-//W3C//DTD SVG 1.1//EN" "http://www.w3.org/Graphics/SVG/1.1/DTD/svg11.dtd">
<svg version="1.1" id="Layer_1" xmlns="http://www.w3.org/2000/svg" xmlns:xlink="http://www.w3.org/1999/xlink" x="0px" y="0px"
	 width="16px" height="16px" viewBox="0 0 16 16" enable-background="new 0 0 16 16" xml:space="preserve">
<circle cx="7.707" cy="2.875" r="1.541"/>
<g>
	<path d="M8.908,6.013v6.499c0,0.488,0.021,0.799,0.064,0.934s0.133,0.246,0.27,0.332s0.355,0.129,0.656,0.129h0.182v0.217H5.897
		v-0.217h0.211c0.34,0,0.582-0.039,0.727-0.117s0.242-0.186,0.293-0.322s0.076-0.455,0.076-0.955v-4.12
		c0-0.367-0.018-0.597-0.053-0.688S7.05,7.534,6.955,7.469S6.749,7.373,6.624,7.373c-0.199,0-0.441,0.062-0.727,0.188L5.792,7.349
		l2.923-1.336H8.908z"/>
</g>
</svg>
