<?xml version="1.0" encoding="utf-8"?>
<!-- Generator: Adobe Illustrator 15.1.0, SVG Export Plug-In . SVG Version: 6.00 Build 0)  -->
<!DOCTYPE svg PUBLIC "-//W3C//DTD SVG 1.1//EN" "http://www.w3.org/Graphics/SVG/1.1/DTD/svg11.dtd">
<svg version="1.1" id="Layer_1" xmlns="http://www.w3.org/2000/svg" xmlns:xlink="http://www.w3.org/1999/xlink" x="0px" y="0px"
	 width="184.146px" height="131.707px" viewBox="0 0 184.146 131.707" enable-background="new 0 0 184.146 131.707"
	 xml:space="preserve">
<g>
	<g>
		<g>
			<path fill="#240D11" d="M52.672,91.239l-1.121,1.278c-0.519-0.483-1.258-0.863-2.432-0.863c-1.705,0-3.482,0.915-3.482,4.553
				c0,3.447,1.207,4.845,3.465,4.845c0.656,0,1.43-0.121,1.845-0.379v-4.484h1.741v5.259c-0.809,0.639-1.982,1.086-3.948,1.086
				c-3.224,0-4.878-2.052-4.878-6.154c0-4.362,2.361-6.274,5.346-6.274C51.326,90.104,52.292,90.862,52.672,91.239z"/>
			<path fill="#240D11" d="M60.535,94.532c-0.344-0.084-0.723-0.137-1.07-0.137c-0.879,0-1.809,0.363-2.291,1.086v6.881h-1.691
				v-9.484h1.311l0.363,1.156h0.068c0.414-0.76,1.26-1.326,2.397-1.326c0.394,0,0.706,0.031,0.913,0.085V94.532z"/>
			<path fill="#240D11" d="M68.191,95.69v4.138c0,0.758,0.24,1.224,0.844,1.224h0.258v1.223c-0.225,0.121-0.482,0.174-0.723,0.174
				c-0.932,0-1.482-0.482-1.725-1.121h-0.068c-0.432,0.518-1.172,1.206-2.707,1.206c-1.775,0-2.76-1.241-2.76-2.534
				c0-2.138,2.035-3.155,5.275-3.068v-0.947c0-1.397-0.689-1.812-1.809-1.812c-1.154,0-1.725,0.638-1.998,1.122l-1.227-0.949
				c0.346-0.466,1.259-1.619,3.258-1.619C66.949,92.726,68.191,93.603,68.191,95.69z M66.586,98.189
				C64.502,98.085,63,98.604,63,99.845c0,0.741,0.536,1.346,1.502,1.346c0.947,0,1.707-0.535,2.084-1.121V98.189z"/>
			<path fill="#240D11" d="M78.83,102.362h-1.707v-6.174c0-1.292-0.637-2.033-1.828-2.033c-1.051,0-1.86,0.672-2.171,1.535v6.672
				h-1.706v-9.484h1.31l0.345,0.966h0.07c0.359-0.447,1.324-1.171,2.653-1.171c1.88,0,2.999,1.032,3.034,3.138V102.362z"/>
			<path fill="#240D11" d="M87.093,89.276h1.688v13.086h-1.294l-0.326-0.915h-0.067c-0.349,0.481-1.191,1.086-2.433,1.086
				c-2.104,0-3.5-1.379-3.5-4.479c0-3.605,1.931-5.191,4.396-5.191c0.655,0,1.139,0.086,1.536,0.172V89.276z M87.108,99.81v-5.241
				c-0.327-0.155-0.948-0.259-1.378-0.259c-1.793,0-2.83,0.967-2.83,3.568c0,2.414,1.018,3.244,2.189,3.244
				C86.09,101.122,86.744,100.586,87.108,99.81z"/>
			<path fill="#240D11" d="M98.748,91.774h-3.173v-1.5h8.069v1.5h-3.154v10.588h-1.742V91.774z"/>
			<path fill="#240D11" d="M110.387,94.532c-0.344-0.084-0.725-0.137-1.068-0.137c-0.881,0-1.811,0.363-2.293,1.086v6.881h-1.689
				v-9.484h1.311l0.361,1.156h0.068c0.414-0.76,1.258-1.326,2.398-1.326c0.396,0,0.707,0.031,0.912,0.085V94.532z"/>
			<path fill="#240D11" d="M118.043,95.69v4.138c0,0.758,0.242,1.224,0.844,1.224h0.26v1.223c-0.225,0.121-0.482,0.174-0.723,0.174
				c-0.934,0-1.484-0.482-1.725-1.121h-0.07c-0.432,0.518-1.172,1.206-2.705,1.206c-1.777,0-2.76-1.241-2.76-2.534
				c0-2.138,2.035-3.155,5.275-3.068v-0.947c0-1.397-0.689-1.812-1.809-1.812c-1.156,0-1.727,0.638-2,1.122l-1.225-0.949
				c0.344-0.466,1.258-1.619,3.258-1.619C116.801,92.726,118.043,93.603,118.043,95.69z M116.439,98.189
				c-2.086-0.104-3.586,0.415-3.586,1.655c0,0.741,0.535,1.346,1.5,1.346c0.947,0,1.707-0.535,2.086-1.121V98.189z"/>
			<path fill="#240D11" d="M126.682,89.276h1.691v13.086h-1.295l-0.326-0.915h-0.07c-0.344,0.481-1.186,1.086-2.428,1.086
				c-2.105,0-3.502-1.379-3.502-4.479c0-3.605,1.932-5.191,4.396-5.191c0.654,0,1.137,0.086,1.533,0.172V89.276z M126.699,99.81
				v-5.241c-0.326-0.155-0.945-0.259-1.379-0.259c-1.793,0-2.826,0.967-2.826,3.568c0,2.414,1.016,3.244,2.188,3.244
				C125.684,101.122,126.338,100.586,126.699,99.81z"/>
			<path fill="#240D11" d="M138.168,101.585c-0.674,0.52-1.639,0.915-3.139,0.915c-2.793,0-4.275-1.467-4.275-4.915
				c0-3.328,1.861-4.877,4.154-4.877c2.295,0,3.551,1.482,3.551,3.758c0,0.465-0.016,1.018-0.084,1.654h-5.932
				c0.104,2.086,0.982,2.967,2.793,2.967c0.965,0,1.775-0.414,2.174-0.775L138.168,101.585z M132.479,96.844h4.326
				c0.018-0.171,0.018-0.345,0.018-0.465c0-1.466-0.637-2.274-2.016-2.274C133.598,94.104,132.564,94.896,132.479,96.844z"/>
		</g>
	</g>
	<g>
		<g>
			<g>
				<path fill="#1B2354" d="M106.328,43.563c0.328,1.604,0.502,3.266,0.502,4.966c0,13.61-11.037,24.647-24.643,24.647
					c-12.436,0-22.721-9.207-24.408-21.172c0,0-0.493-2.838-0.493-4.058c0-1.511-0.023-2.499,0-3.196
					c0.17-5.984,1.636-11.68,4.282-16.605l0.588-1.147c6.127-12.209,18.761-20.587,33.35-20.587c2.25,0,4.455,0.2,6.592,0.579
					l-5.834,11.188c-0.311-0.009-0.62-0.015-0.932-0.015c-14.135,0-25.598,11.459-25.598,25.597c0,2.114,0.257,4.167,0.736,6.128
					l0.191,0.947c1.546,7.323,8.043,12.822,15.827,12.822c0,0,1.5-0.063,1.862-0.119c6.482-0.967,11.869-5.313,11.869-11.867
					c0-1.416-0.25-2.771-0.703-4.028L106.328,43.563z"/>
			</g>
			<g>
				<polygon fill="#1B2354" points="119.533,20.335 95.41,36.494 95.41,45.025 109.795,35.391 112.941,69.591 117.75,62.346 
					117.75,30.062 119.533,28.866 				"/>
			</g>
		</g>
	</g>
</g>
<g>
	<path fill="#8E8580" d="M9.084,119.555c0.2-0.365,0.396-0.747,0.586-1.147c0.189-0.4,0.375-0.803,0.555-1.207
		c0.18-0.406,0.354-0.793,0.524-1.163c0.11,0.021,0.223,0.038,0.338,0.052c0.115,0.016,0.232,0.023,0.353,0.023
		s0.237-0.008,0.353-0.023c0.115-0.014,0.237-0.031,0.367-0.052c-0.17,0.28-0.382,0.647-0.638,1.103
		c-0.255,0.455-0.527,0.947-0.817,1.478s-0.582,1.072-0.877,1.628c-0.295,0.555-0.562,1.066-0.803,1.537
		c0,0.24-0.005,0.482-0.015,0.727c-0.011,0.246-0.016,0.493-0.016,0.743c0,0.511,0.008,1.015,0.022,1.515
		c0.016,0.5,0.058,1.025,0.128,1.575c-0.21-0.021-0.423-0.03-0.638-0.03s-0.428,0-0.638,0s-0.422,0-0.637,0
		c-0.216,0-0.428,0.01-0.638,0.03c0.02-0.46,0.055-0.93,0.104-1.409c0.05-0.48,0.075-0.961,0.075-1.44
		c0-0.229-0.003-0.462-0.008-0.698c-0.005-0.234-0.013-0.467-0.022-0.697c-0.25-0.5-0.537-1.057-0.862-1.672
		s-0.64-1.213-0.945-1.793c-0.305-0.58-0.585-1.104-0.84-1.574c-0.255-0.471-0.442-0.811-0.562-1.021
		c0.23,0.021,0.455,0.038,0.675,0.052c0.221,0.016,0.445,0.023,0.676,0.023c0.229,0,0.452-0.008,0.667-0.023
		c0.215-0.014,0.438-0.031,0.668-0.052c0.17,0.37,0.362,0.78,0.577,1.229c0.215,0.45,0.428,0.891,0.638,1.32s0.405,0.82,0.585,1.17
		s0.325,0.61,0.435,0.78h0.03C8.685,120.247,8.885,119.919,9.084,119.555z"/>
	<path fill="#8E8580" d="M11.374,121.183c0.205-0.5,0.478-0.918,0.817-1.253s0.732-0.585,1.178-0.75
		c0.444-0.165,0.902-0.247,1.372-0.247c1.17,0,2.075,0.33,2.715,0.989c0.64,0.66,0.96,1.556,0.96,2.685c0,0.611-0.09,1.16-0.27,1.65
		c-0.181,0.49-0.433,0.908-0.758,1.252c-0.325,0.346-0.712,0.604-1.162,0.773s-0.945,0.255-1.485,0.255
		c-0.45,0-0.893-0.06-1.327-0.181c-0.436-0.119-0.828-0.322-1.178-0.607c-0.351-0.285-0.633-0.656-0.848-1.117
		c-0.215-0.459-0.322-1.025-0.322-1.695S11.168,121.683,11.374,121.183z M15.866,120.335c-0.22-0.485-0.585-0.729-1.095-0.729
		c-0.46,0-0.823,0.271-1.088,0.811s-0.397,1.385-0.397,2.535c0,0.42,0.025,0.811,0.075,1.17s0.133,0.672,0.247,0.938
		c0.115,0.266,0.266,0.473,0.45,0.623c0.186,0.149,0.418,0.225,0.697,0.225c0.96,0,1.44-1.176,1.44-3.525
		C16.196,121.502,16.085,120.819,15.866,120.335z"/>
	<path fill="#8E8580" d="M24.475,125.263c-0.28,0.42-0.607,0.736-0.982,0.951s-0.803,0.323-1.282,0.323
		c-0.75,0-1.328-0.21-1.732-0.63c-0.405-0.42-0.608-1.115-0.608-2.086c0-0.51,0.011-0.959,0.03-1.35
		c0.021-0.39,0.03-0.779,0.03-1.17c0-0.32-0.008-0.668-0.022-1.043c-0.016-0.375-0.033-0.752-0.053-1.132
		c0.13,0.021,0.295,0.038,0.495,0.053s0.41,0.022,0.63,0.022s0.43-0.008,0.63-0.022s0.365-0.032,0.495-0.053
		c-0.07,0.54-0.115,1.165-0.135,1.875c-0.021,0.71-0.03,1.521-0.03,2.431c0,0.629,0.107,1.092,0.322,1.387s0.518,0.443,0.908,0.443
		c0.449,0,0.779-0.195,0.989-0.586c0.21-0.39,0.315-0.93,0.315-1.619v-0.601c0-0.61-0.008-1.183-0.022-1.718
		s-0.048-1.072-0.098-1.612c0.28,0.05,0.655,0.075,1.125,0.075c0.23,0,0.44-0.008,0.63-0.022c0.19-0.015,0.355-0.032,0.495-0.053
		c-0.05,0.54-0.082,1.077-0.098,1.612c-0.015,0.535-0.022,1.107-0.022,1.718v0.601c0,0.609,0.008,1.185,0.022,1.725
		c0.016,0.539,0.048,1.061,0.098,1.56c-0.18-0.021-0.357-0.03-0.532-0.03s-0.353,0-0.532,0c-0.181,0-0.358,0-0.533,0
		s-0.362,0.01-0.562,0.03l0.061-1.079H24.475z"/>
	<path fill="#8E8580" d="M34.794,120.252c0.28-0.42,0.607-0.745,0.982-0.976c0.375-0.229,0.803-0.344,1.283-0.344
		c0.75,0,1.327,0.217,1.732,0.652c0.404,0.435,0.607,1.137,0.607,2.107c0,0.51-0.011,0.959-0.03,1.35
		c-0.021,0.391-0.03,0.779-0.03,1.17c0,0.32,0.008,0.668,0.022,1.043c0.016,0.375,0.032,0.737,0.053,1.087
		c-0.13-0.021-0.295-0.03-0.495-0.03s-0.41,0-0.63,0s-0.43,0-0.63,0s-0.365,0.01-0.495,0.03c0.07-0.52,0.115-1.132,0.135-1.837
		c0.021-0.705,0.03-1.513,0.03-2.423c0-0.63-0.107-1.093-0.322-1.388c-0.216-0.295-0.518-0.442-0.907-0.442
		c-0.45,0-0.78,0.194-0.99,0.585s-0.315,0.93-0.315,1.62v0.601c0,0.609,0.008,1.185,0.022,1.725c0.016,0.539,0.048,1.061,0.098,1.56
		c-0.13-0.021-0.292-0.03-0.487-0.03s-0.407,0-0.638,0s-0.44,0-0.63,0c-0.19,0-0.355,0.01-0.495,0.03
		c0.05-0.499,0.083-1.021,0.098-1.56c0.015-0.54,0.022-1.115,0.022-1.725v-0.601c0-0.61-0.008-1.183-0.022-1.718
		s-0.048-1.072-0.098-1.612c0.18,0.021,0.357,0.038,0.532,0.053s0.353,0.022,0.533,0.022c0.18,0,0.357-0.008,0.532-0.022
		s0.362-0.032,0.562-0.053l-0.061,1.125H34.794z"/>
	<path fill="#8E8580" d="M42.587,119.202c0.485-0.18,0.968-0.27,1.447-0.27c0.4,0,0.768,0.045,1.103,0.135s0.625,0.232,0.87,0.428
		c0.245,0.194,0.435,0.447,0.57,0.757c0.135,0.31,0.202,0.685,0.202,1.125c0,0.64-0.008,1.232-0.022,1.777
		c-0.015,0.546-0.022,1.088-0.022,1.628c0,0.24,0.018,0.428,0.053,0.562s0.087,0.237,0.157,0.307c0.07,0.07,0.162,0.115,0.277,0.136
		s0.248,0.03,0.397,0.03v0.359c-0.29,0.12-0.535,0.211-0.734,0.27c-0.2,0.061-0.415,0.091-0.646,0.091
		c-0.37,0-0.67-0.091-0.899-0.271c-0.23-0.18-0.405-0.439-0.525-0.779c-0.23,0.32-0.498,0.574-0.803,0.765s-0.688,0.285-1.147,0.285
		c-0.38,0-0.705-0.05-0.975-0.149c-0.271-0.101-0.493-0.243-0.668-0.428c-0.175-0.186-0.303-0.396-0.382-0.631
		c-0.081-0.234-0.12-0.473-0.12-0.712c0-0.33,0.052-0.615,0.157-0.854c0.104-0.24,0.255-0.445,0.45-0.615
		c0.194-0.17,0.427-0.312,0.697-0.428c0.27-0.115,0.575-0.213,0.915-0.293c0.42-0.1,0.752-0.188,0.997-0.262
		c0.245-0.076,0.428-0.15,0.548-0.226s0.197-0.157,0.232-0.247s0.053-0.2,0.053-0.33c0-0.36-0.128-0.668-0.383-0.923
		s-0.607-0.382-1.058-0.382c-0.17,0-0.345,0.021-0.524,0.066c-0.181,0.045-0.353,0.107-0.518,0.188s-0.315,0.168-0.45,0.264
		c-0.135,0.094-0.237,0.197-0.308,0.307h-0.104l-0.195-0.9C41.65,119.642,42.102,119.382,42.587,119.202z M44.792,123.079
		c0.005-0.225,0.008-0.422,0.008-0.592c-0.21,0.119-0.433,0.217-0.668,0.292s-0.45,0.171-0.645,0.285
		c-0.195,0.115-0.355,0.272-0.48,0.473s-0.188,0.489-0.188,0.87c0,0.369,0.077,0.652,0.232,0.848s0.362,0.292,0.623,0.292
		c0.329,0,0.597-0.125,0.802-0.375c0.205-0.249,0.308-0.62,0.308-1.11C44.785,123.632,44.788,123.305,44.792,123.079z"/>
	<path fill="#8E8580" d="M50.89,120.252c0.28-0.42,0.607-0.745,0.982-0.976c0.375-0.229,0.803-0.344,1.282-0.344
		c0.45,0,0.838,0.122,1.163,0.367c0.325,0.244,0.577,0.598,0.758,1.057c0.3-0.459,0.649-0.812,1.05-1.057
		c0.399-0.245,0.825-0.367,1.274-0.367c0.75,0,1.328,0.217,1.732,0.652c0.405,0.435,0.608,1.137,0.608,2.107
		c0,0.51-0.011,0.959-0.03,1.35c-0.021,0.391-0.03,0.779-0.03,1.17c0,0.32,0.008,0.668,0.022,1.043s0.032,0.737,0.053,1.087
		c-0.13-0.021-0.295-0.03-0.495-0.03s-0.41,0-0.63,0s-0.431,0-0.63,0c-0.2,0-0.365,0.01-0.495,0.03
		c0.069-0.52,0.114-1.132,0.135-1.837s0.03-1.513,0.03-2.423c0-0.63-0.105-1.093-0.315-1.388s-0.505-0.442-0.885-0.442
		c-0.24,0-0.438,0.056-0.593,0.165c-0.155,0.11-0.277,0.252-0.367,0.428c-0.09,0.175-0.15,0.362-0.18,0.562
		c-0.03,0.199-0.045,0.39-0.045,0.57v1.08c0,0.609,0.007,1.185,0.022,1.725c0.015,0.539,0.047,1.061,0.097,1.56
		c-0.13-0.021-0.292-0.03-0.487-0.03c-0.194,0-0.407,0-0.638,0c-0.229,0-0.439,0-0.63,0c-0.189,0-0.354,0.01-0.495,0.03
		c0.051-0.499,0.083-1.021,0.098-1.56c0.016-0.54,0.022-1.115,0.022-1.725v-0.916c0-0.6-0.074-1.064-0.225-1.395
		s-0.435-0.495-0.855-0.495c-0.449,0-0.779,0.194-0.989,0.585s-0.315,0.93-0.315,1.62v0.601c0,0.609,0.008,1.185,0.022,1.725
		c0.016,0.539,0.048,1.061,0.098,1.56c-0.13-0.021-0.293-0.03-0.487-0.03c-0.195,0-0.408,0-0.638,0c-0.23,0-0.44,0-0.63,0
		c-0.19,0-0.355,0.01-0.495,0.03c0.05-0.499,0.082-1.021,0.098-1.56c0.015-0.54,0.022-1.115,0.022-1.725v-0.601
		c0-0.61-0.008-1.183-0.022-1.718c-0.016-0.535-0.048-1.072-0.098-1.612c0.18,0.021,0.357,0.038,0.532,0.053
		s0.353,0.022,0.533,0.022c0.18,0,0.357-0.008,0.532-0.022s0.362-0.032,0.562-0.053l-0.061,1.125H50.89z"/>
	<path fill="#8E8580" d="M63.49,123.882c0.08,0.35,0.202,0.652,0.367,0.908c0.165,0.254,0.375,0.455,0.63,0.6
		c0.256,0.145,0.553,0.217,0.893,0.217c0.69,0,1.306-0.225,1.846-0.674l0.18,0.135l-0.33,0.84c-0.25,0.189-0.55,0.342-0.9,0.457
		c-0.35,0.115-0.81,0.173-1.38,0.173c-0.489,0-0.955-0.067-1.395-0.202c-0.44-0.135-0.828-0.357-1.163-0.668s-0.6-0.703-0.795-1.178
		c-0.194-0.475-0.292-1.043-0.292-1.702c0-0.649,0.087-1.216,0.263-1.695c0.175-0.479,0.417-0.88,0.728-1.2
		c0.31-0.319,0.677-0.56,1.103-0.72c0.425-0.159,0.887-0.239,1.387-0.239c0.99,0,1.748,0.289,2.272,0.869
		c0.525,0.58,0.788,1.4,0.788,2.461v0.314c0,0.09-0.005,0.15-0.016,0.18H63.37C63.37,123.157,63.41,123.532,63.49,123.882z
		 M65.402,120.282c-0.165-0.45-0.442-0.676-0.832-0.676c-0.22,0-0.405,0.076-0.555,0.226c-0.15,0.149-0.271,0.343-0.36,0.577
		c-0.09,0.235-0.157,0.5-0.202,0.795s-0.073,0.588-0.083,0.878h2.311C65.66,121.332,65.567,120.731,65.402,120.282z"/>
	<path fill="#8E8580" d="M73.87,115.452c0.229-0.23,0.51-0.346,0.84-0.346s0.61,0.115,0.84,0.346c0.23,0.23,0.345,0.51,0.345,0.84
		s-0.114,0.609-0.345,0.84c-0.229,0.23-0.51,0.346-0.84,0.346s-0.61-0.115-0.84-0.346c-0.23-0.23-0.345-0.51-0.345-0.84
		S73.639,115.683,73.87,115.452z M73.682,120.739c-0.015-0.535-0.048-1.072-0.098-1.612c0.14,0.021,0.305,0.038,0.495,0.053
		c0.189,0.015,0.399,0.022,0.63,0.022c0.47,0,0.845-0.025,1.125-0.075c-0.05,0.54-0.082,1.077-0.098,1.612
		c-0.015,0.535-0.022,1.107-0.022,1.718v0.601c0,0.609,0.008,1.185,0.022,1.725c0.016,0.539,0.048,1.061,0.098,1.56
		c-0.13-0.021-0.292-0.03-0.487-0.03s-0.408,0-0.638,0c-0.23,0-0.44,0-0.63,0c-0.19,0-0.355,0.01-0.495,0.03
		c0.05-0.499,0.083-1.021,0.098-1.56c0.015-0.54,0.022-1.115,0.022-1.725v-0.601C73.705,121.847,73.697,121.274,73.682,120.739z"/>
	<path fill="#8E8580" d="M81.64,119.606c0,0.131,0.015,0.256,0.045,0.375l-1.32-0.029c-0.021,0.23-0.037,0.494-0.053,0.795
		c-0.015,0.3-0.024,0.605-0.029,0.915c-0.006,0.31-0.011,0.61-0.016,0.899c-0.005,0.291-0.007,0.535-0.007,0.735
		c0,0.521,0.012,0.94,0.037,1.261c0.024,0.319,0.067,0.564,0.128,0.734c0.06,0.17,0.145,0.285,0.255,0.346
		c0.109,0.059,0.249,0.09,0.42,0.09c0.189,0,0.33-0.014,0.42-0.038s0.18-0.062,0.27-0.112v0.615c-0.2,0.09-0.45,0.17-0.75,0.24
		c-0.3,0.069-0.595,0.104-0.885,0.104c-1.271,0-1.905-0.76-1.905-2.28c0-0.289,0.005-0.617,0.016-0.982
		c0.01-0.365,0.022-0.74,0.037-1.125s0.027-0.766,0.037-1.141c0.011-0.375,0.016-0.722,0.016-1.042l-1.05,0.015
		c0.029-0.119,0.045-0.244,0.045-0.375c0-0.119-0.016-0.254-0.045-0.404l1.05,0.045c0-0.311-0.005-0.6-0.016-0.87
		c-0.01-0.271-0.024-0.595-0.045-0.976c0.351-0.139,0.695-0.287,1.035-0.441c0.34-0.155,0.68-0.318,1.021-0.488l0.149,0.105
		c-0.02,0.16-0.037,0.348-0.052,0.562c-0.016,0.215-0.03,0.439-0.046,0.675c-0.015,0.235-0.024,0.476-0.029,0.72
		c-0.006,0.246-0.008,0.479-0.008,0.697l1.32-0.029C81.655,119.353,81.64,119.487,81.64,119.606z"/>
	<path fill="#8E8580" d="M83.036,126.395c0.17-0.646,0.324-1.138,0.465-1.478c0.14-0.34,0.279-0.561,0.42-0.66
		c0.14-0.1,0.31-0.15,0.51-0.15c0.12,0,0.242,0.021,0.367,0.061s0.24,0.098,0.346,0.172c0.104,0.076,0.189,0.174,0.255,0.293
		c0.064,0.12,0.098,0.256,0.098,0.405c0,0.09-0.022,0.194-0.067,0.315c-0.045,0.119-0.16,0.316-0.346,0.592
		c-0.185,0.275-0.457,0.668-0.817,1.178c-0.359,0.51-0.854,1.199-1.484,2.07l-0.375-0.15
		C82.655,127.922,82.865,127.04,83.036,126.395z"/>
	<path fill="#8E8580" d="M100.975,119.127c0.221,0.05,0.416,0.075,0.586,0.075c0.1,0,0.197-0.008,0.291-0.022
		c0.096-0.015,0.209-0.032,0.338-0.053c-0.07,0.13-0.164,0.345-0.285,0.646c-0.119,0.299-0.252,0.654-0.396,1.064
		s-0.301,0.857-0.465,1.343c-0.166,0.485-0.328,0.973-0.488,1.462c-0.16,0.49-0.316,0.971-0.473,1.44
		c-0.154,0.47-0.293,0.89-0.412,1.26c-0.141-0.021-0.277-0.03-0.412-0.03s-0.273,0-0.412,0c-0.141,0-0.281,0-0.42,0
		c-0.141,0-0.281,0.01-0.42,0.03c-0.121-0.38-0.246-0.787-0.375-1.222c-0.131-0.436-0.262-0.865-0.391-1.291
		c-0.131-0.424-0.256-0.84-0.375-1.244c-0.121-0.405-0.23-0.783-0.33-1.133h-0.029c-0.262,0.84-0.518,1.665-0.773,2.475
		c-0.256,0.811-0.498,1.615-0.727,2.415c-0.141-0.021-0.283-0.03-0.428-0.03c-0.146,0-0.289,0-0.428,0c-0.141,0-0.285,0-0.436,0
		s-0.301,0.01-0.449,0.03c-0.111-0.37-0.239-0.798-0.383-1.282s-0.298-0.978-0.457-1.478c-0.16-0.5-0.32-0.995-0.48-1.485
		s-0.308-0.938-0.442-1.342c-0.135-0.405-0.253-0.753-0.353-1.043s-0.17-0.484-0.21-0.585c0.22,0.021,0.423,0.038,0.607,0.053
		s0.372,0.022,0.562,0.022c0.18,0,0.362-0.008,0.548-0.022c0.185-0.015,0.367-0.032,0.547-0.053c0.24,0.87,0.49,1.763,0.75,2.678
		s0.504,1.753,0.734,2.513h0.031c0.289-0.881,0.555-1.745,0.795-2.596c0.24-0.85,0.479-1.715,0.719-2.595
		c0.141,0.021,0.281,0.038,0.42,0.053c0.141,0.015,0.281,0.022,0.42,0.022c0.141,0,0.281-0.008,0.42-0.022
		c0.141-0.015,0.281-0.032,0.42-0.053c0.24,0.88,0.486,1.745,0.736,2.595c0.25,0.851,0.51,1.715,0.779,2.596h0.031
		C100.01,122.577,100.516,120.847,100.975,119.127z"/>
	<path fill="#8E8580" d="M105.385,123.882c0.08,0.35,0.201,0.652,0.367,0.908c0.164,0.254,0.375,0.455,0.629,0.6
		c0.256,0.145,0.553,0.217,0.893,0.217c0.691,0,1.307-0.225,1.846-0.674l0.18,0.135l-0.33,0.84c-0.25,0.189-0.549,0.342-0.9,0.457
		c-0.35,0.115-0.809,0.173-1.379,0.173c-0.49,0-0.955-0.067-1.395-0.202c-0.441-0.135-0.828-0.357-1.164-0.668
		c-0.334-0.311-0.6-0.703-0.795-1.178c-0.193-0.475-0.291-1.043-0.291-1.702c0-0.649,0.086-1.216,0.262-1.695s0.418-0.88,0.729-1.2
		c0.309-0.319,0.676-0.56,1.102-0.72c0.426-0.159,0.887-0.239,1.387-0.239c0.99,0,1.748,0.289,2.273,0.869s0.787,1.4,0.787,2.461
		v0.314c0,0.09-0.004,0.15-0.016,0.18h-4.305C105.264,123.157,105.305,123.532,105.385,123.882z M107.297,120.282
		c-0.166-0.45-0.443-0.676-0.832-0.676c-0.221,0-0.406,0.076-0.555,0.226c-0.15,0.149-0.271,0.343-0.361,0.577
		c-0.09,0.235-0.156,0.5-0.201,0.795s-0.074,0.588-0.084,0.878h2.311C107.555,121.332,107.461,120.731,107.297,120.282z"/>
	<path fill="#8E8580" d="M111.369,118.002c0.17-0.66,0.326-1.159,0.465-1.5c0.141-0.34,0.281-0.56,0.42-0.66
		c0.141-0.1,0.311-0.149,0.512-0.149c0.119,0,0.242,0.02,0.367,0.06s0.24,0.098,0.344,0.173c0.105,0.074,0.191,0.172,0.256,0.292
		s0.098,0.255,0.098,0.405c0,0.061-0.008,0.125-0.023,0.195c-0.014,0.07-0.055,0.162-0.119,0.277
		c-0.066,0.115-0.156,0.268-0.27,0.457c-0.115,0.19-0.275,0.43-0.48,0.721c-0.205,0.289-0.455,0.643-0.75,1.057
		c-0.295,0.416-0.652,0.913-1.072,1.492l-0.375-0.149C110.99,119.552,111.199,118.662,111.369,118.002z"/>
	<path fill="#8E8580" d="M115.57,117.522c-0.02-0.82-0.051-1.65-0.09-2.49c0.129,0.02,0.295,0.037,0.494,0.053
		c0.201,0.015,0.41,0.021,0.631,0.021c0.219,0,0.43-0.007,0.629-0.021c0.201-0.016,0.365-0.033,0.496-0.053
		c-0.041,0.84-0.07,1.67-0.09,2.49c-0.021,0.82-0.031,1.72-0.031,2.699v0.975c0,0.98,0.01,1.881,0.031,2.701
		c0.02,0.82,0.049,1.635,0.09,2.444c-0.131-0.021-0.295-0.03-0.496-0.03c-0.199,0-0.41,0-0.629,0c-0.221,0-0.43,0-0.631,0
		c-0.199,0-0.365,0.01-0.494,0.03c0.039-0.81,0.07-1.624,0.09-2.444s0.029-1.721,0.029-2.701v-0.975
		C115.6,119.242,115.59,118.343,115.57,117.522z"/>
	<path fill="#8E8580" d="M119.889,117.522c-0.02-0.82-0.049-1.65-0.09-2.49c0.131,0.02,0.295,0.037,0.496,0.053
		c0.199,0.015,0.41,0.021,0.629,0.021c0.221,0,0.43-0.007,0.631-0.021c0.199-0.016,0.365-0.033,0.494-0.053
		c-0.039,0.84-0.07,1.67-0.09,2.49s-0.029,1.72-0.029,2.699v0.975c0,0.98,0.01,1.881,0.029,2.701s0.051,1.635,0.09,2.444
		c-0.129-0.021-0.295-0.03-0.494-0.03c-0.201,0-0.41,0-0.631,0c-0.219,0-0.43,0-0.629,0c-0.201,0-0.365,0.01-0.496,0.03
		c0.041-0.81,0.07-1.624,0.09-2.444c0.021-0.82,0.031-1.721,0.031-2.701v-0.975C119.92,119.242,119.91,118.343,119.889,117.522z"/>
	<path fill="#8E8580" d="M130.359,120.252c0.279-0.42,0.607-0.745,0.982-0.976c0.375-0.229,0.803-0.344,1.281-0.344
		c0.451,0,0.838,0.122,1.164,0.367c0.324,0.244,0.576,0.598,0.758,1.057c0.299-0.459,0.648-0.812,1.049-1.057
		c0.4-0.245,0.826-0.367,1.275-0.367c0.75,0,1.328,0.217,1.732,0.652c0.404,0.435,0.607,1.137,0.607,2.107
		c0,0.51-0.01,0.959-0.029,1.35c-0.021,0.391-0.031,0.779-0.031,1.17c0,0.32,0.008,0.668,0.023,1.043
		c0.014,0.375,0.031,0.737,0.053,1.087c-0.131-0.021-0.295-0.03-0.496-0.03c-0.199,0-0.41,0-0.629,0c-0.221,0-0.432,0-0.631,0
		s-0.365,0.01-0.494,0.03c0.068-0.52,0.113-1.132,0.135-1.837c0.02-0.705,0.029-1.513,0.029-2.423c0-0.63-0.105-1.093-0.314-1.388
		c-0.211-0.295-0.506-0.442-0.885-0.442c-0.24,0-0.438,0.056-0.594,0.165c-0.154,0.11-0.277,0.252-0.367,0.428
		c-0.09,0.175-0.15,0.362-0.18,0.562c-0.029,0.199-0.045,0.39-0.045,0.57v1.08c0,0.609,0.008,1.185,0.023,1.725
		c0.014,0.539,0.047,1.061,0.096,1.56c-0.129-0.021-0.291-0.03-0.486-0.03s-0.408,0-0.639,0c-0.229,0-0.439,0-0.629,0
		s-0.355,0.01-0.496,0.03c0.051-0.499,0.084-1.021,0.098-1.56c0.016-0.54,0.023-1.115,0.023-1.725v-0.916
		c0-0.6-0.074-1.064-0.225-1.395s-0.436-0.495-0.855-0.495c-0.449,0-0.779,0.194-0.99,0.585c-0.209,0.391-0.314,0.93-0.314,1.62
		v0.601c0,0.609,0.008,1.185,0.021,1.725c0.016,0.539,0.049,1.061,0.098,1.56c-0.129-0.021-0.293-0.03-0.486-0.03
		c-0.195,0-0.408,0-0.639,0s-0.439,0-0.629,0c-0.191,0-0.355,0.01-0.496,0.03c0.051-0.499,0.082-1.021,0.098-1.56
		c0.016-0.54,0.023-1.115,0.023-1.725v-0.601c0-0.61-0.008-1.183-0.023-1.718s-0.047-1.072-0.098-1.612
		c0.18,0.021,0.357,0.038,0.533,0.053c0.174,0.015,0.352,0.022,0.533,0.022c0.18,0,0.357-0.008,0.531-0.022
		c0.176-0.015,0.363-0.032,0.562-0.053l-0.061,1.125H130.359z"/>
	<path fill="#8E8580" d="M142.352,119.202c0.486-0.18,0.969-0.27,1.447-0.27c0.4,0,0.768,0.045,1.104,0.135
		c0.334,0.09,0.625,0.232,0.869,0.428c0.246,0.194,0.436,0.447,0.57,0.757s0.203,0.685,0.203,1.125c0,0.64-0.008,1.232-0.023,1.777
		c-0.014,0.546-0.021,1.088-0.021,1.628c0,0.24,0.018,0.428,0.053,0.562s0.086,0.237,0.156,0.307c0.07,0.07,0.162,0.115,0.277,0.136
		s0.248,0.03,0.398,0.03v0.359c-0.291,0.12-0.535,0.211-0.734,0.27c-0.201,0.061-0.416,0.091-0.646,0.091
		c-0.369,0-0.67-0.091-0.898-0.271c-0.23-0.18-0.406-0.439-0.525-0.779c-0.23,0.32-0.498,0.574-0.803,0.765
		s-0.688,0.285-1.148,0.285c-0.379,0-0.705-0.05-0.975-0.149c-0.27-0.101-0.492-0.243-0.668-0.428
		c-0.174-0.186-0.303-0.396-0.381-0.631c-0.082-0.234-0.121-0.473-0.121-0.712c0-0.33,0.053-0.615,0.158-0.854
		c0.104-0.24,0.254-0.445,0.449-0.615s0.428-0.312,0.697-0.428s0.576-0.213,0.916-0.293c0.42-0.1,0.752-0.188,0.996-0.262
		c0.246-0.076,0.428-0.15,0.549-0.226c0.119-0.075,0.197-0.157,0.232-0.247s0.053-0.2,0.053-0.33c0-0.36-0.129-0.668-0.383-0.923
		c-0.256-0.255-0.607-0.382-1.059-0.382c-0.17,0-0.344,0.021-0.523,0.066c-0.182,0.045-0.354,0.107-0.518,0.188
		c-0.166,0.08-0.316,0.168-0.451,0.264c-0.135,0.094-0.236,0.197-0.307,0.307h-0.105l-0.195-0.9
		C141.414,119.642,141.867,119.382,142.352,119.202z M144.557,123.079c0.006-0.225,0.008-0.422,0.008-0.592
		c-0.209,0.119-0.432,0.217-0.668,0.292c-0.234,0.075-0.449,0.171-0.645,0.285c-0.195,0.115-0.355,0.272-0.48,0.473
		s-0.188,0.489-0.188,0.87c0,0.369,0.078,0.652,0.232,0.848c0.156,0.195,0.363,0.292,0.623,0.292c0.33,0,0.598-0.125,0.803-0.375
		c0.205-0.249,0.307-0.62,0.307-1.11C144.549,123.632,144.553,123.305,144.557,123.079z"/>
	<path fill="#8E8580" d="M148.66,117.522c-0.02-0.82-0.051-1.65-0.09-2.49c0.129,0.02,0.295,0.037,0.494,0.053
		c0.201,0.015,0.41,0.021,0.631,0.021c0.219,0,0.43-0.007,0.629-0.021c0.201-0.016,0.365-0.033,0.496-0.053
		c-0.021,0.42-0.037,0.845-0.053,1.275c-0.016,0.43-0.027,0.914-0.037,1.455c-0.01,0.539-0.018,1.156-0.023,1.852
		c-0.004,0.695-0.008,1.523-0.008,2.482c0,0.141,0.004,0.23,0.008,0.271c0.006,0.04,0.027,0.06,0.068,0.06
		c0.039,0,0.137-0.077,0.293-0.232c0.154-0.154,0.354-0.377,0.6-0.668c0.244-0.289,0.529-0.637,0.854-1.042
		c0.326-0.405,0.684-0.857,1.074-1.357c0.119,0.021,0.236,0.038,0.352,0.053s0.232,0.022,0.354,0.022
		c0.109,0,0.229-0.008,0.359-0.022c0.129-0.015,0.289-0.032,0.48-0.053c-0.131,0.149-0.322,0.354-0.578,0.615
		c-0.256,0.26-0.518,0.527-0.787,0.802c-0.27,0.275-0.525,0.538-0.766,0.788s-0.414,0.435-0.525,0.556
		c0.041,0.059,0.129,0.199,0.264,0.42c0.135,0.219,0.297,0.482,0.486,0.787s0.391,0.63,0.6,0.975
		c0.211,0.346,0.408,0.676,0.594,0.99s0.348,0.59,0.486,0.824c0.141,0.236,0.23,0.389,0.271,0.458
		c-0.211-0.021-0.41-0.03-0.602-0.03c-0.189,0-0.385,0-0.584,0c-0.201,0-0.393,0-0.578,0s-0.373,0.01-0.562,0.03
		c-0.049-0.05-0.133-0.175-0.246-0.375c-0.115-0.2-0.246-0.427-0.391-0.683c-0.145-0.255-0.295-0.521-0.451-0.803
		c-0.154-0.279-0.301-0.537-0.441-0.771c-0.141-0.235-0.266-0.428-0.375-0.578s-0.186-0.225-0.225-0.225
		c-0.041,0-0.068,0.029-0.084,0.09c-0.014,0.061-0.021,0.245-0.021,0.555v0.84c0,0.131,0.002,0.291,0.008,0.48
		c0.004,0.189,0.01,0.383,0.014,0.578c0.006,0.194,0.016,0.377,0.031,0.547s0.031,0.285,0.053,0.345
		c-0.18-0.021-0.361-0.03-0.541-0.03s-0.359,0-0.539,0s-0.361,0-0.541,0s-0.359,0.01-0.539,0.03c0.039-0.81,0.07-1.624,0.09-2.444
		s0.029-1.721,0.029-2.701v-0.975C148.689,119.242,148.68,118.343,148.66,117.522z"/>
	<path fill="#8E8580" d="M158.26,123.882c0.08,0.35,0.201,0.652,0.367,0.908c0.164,0.254,0.375,0.455,0.629,0.6
		c0.256,0.145,0.553,0.217,0.893,0.217c0.691,0,1.307-0.225,1.846-0.674l0.18,0.135l-0.33,0.84c-0.25,0.189-0.549,0.342-0.9,0.457
		c-0.35,0.115-0.809,0.173-1.379,0.173c-0.49,0-0.955-0.067-1.395-0.202c-0.441-0.135-0.828-0.357-1.164-0.668
		c-0.334-0.311-0.6-0.703-0.795-1.178c-0.193-0.475-0.291-1.043-0.291-1.702c0-0.649,0.086-1.216,0.262-1.695s0.418-0.88,0.729-1.2
		c0.309-0.319,0.676-0.56,1.102-0.72c0.426-0.159,0.887-0.239,1.387-0.239c0.99,0,1.748,0.289,2.273,0.869s0.787,1.4,0.787,2.461
		v0.314c0,0.09-0.004,0.15-0.016,0.18h-4.305C158.139,123.157,158.18,123.532,158.26,123.882z M160.172,120.282
		c-0.166-0.45-0.443-0.676-0.832-0.676c-0.221,0-0.406,0.076-0.555,0.226c-0.15,0.149-0.271,0.343-0.361,0.577
		c-0.09,0.235-0.156,0.5-0.201,0.795s-0.074,0.588-0.084,0.878h2.311C160.43,121.332,160.336,120.731,160.172,120.282z"/>
	<path fill="#8E8580" d="M168.639,115.452c0.23-0.23,0.51-0.346,0.84-0.346s0.611,0.115,0.84,0.346c0.23,0.23,0.346,0.51,0.346,0.84
		s-0.115,0.609-0.346,0.84c-0.229,0.23-0.51,0.346-0.84,0.346s-0.609-0.115-0.84-0.346s-0.344-0.51-0.344-0.84
		S168.408,115.683,168.639,115.452z M168.451,120.739c-0.014-0.535-0.047-1.072-0.098-1.612c0.141,0.021,0.305,0.038,0.496,0.053
		c0.189,0.015,0.398,0.022,0.629,0.022c0.471,0,0.846-0.025,1.125-0.075c-0.049,0.54-0.082,1.077-0.098,1.612
		c-0.014,0.535-0.021,1.107-0.021,1.718v0.601c0,0.609,0.008,1.185,0.021,1.725c0.016,0.539,0.049,1.061,0.098,1.56
		c-0.129-0.021-0.291-0.03-0.486-0.03s-0.408,0-0.639,0s-0.439,0-0.629,0c-0.191,0-0.355,0.01-0.496,0.03
		c0.051-0.499,0.084-1.021,0.098-1.56c0.016-0.54,0.023-1.115,0.023-1.725v-0.601C168.475,121.847,168.467,121.274,168.451,120.739z
		"/>
	<path fill="#8E8580" d="M176.41,119.606c0,0.131,0.014,0.256,0.045,0.375l-1.32-0.029c-0.021,0.23-0.037,0.494-0.053,0.795
		c-0.016,0.3-0.025,0.605-0.029,0.915c-0.006,0.31-0.012,0.61-0.016,0.899c-0.006,0.291-0.008,0.535-0.008,0.735
		c0,0.521,0.012,0.94,0.037,1.261c0.025,0.319,0.068,0.564,0.129,0.734c0.059,0.17,0.145,0.285,0.254,0.346
		c0.109,0.059,0.25,0.09,0.42,0.09c0.189,0,0.33-0.014,0.42-0.038s0.18-0.062,0.27-0.112v0.615c-0.199,0.09-0.449,0.17-0.75,0.24
		c-0.299,0.069-0.594,0.104-0.885,0.104c-1.27,0-1.904-0.76-1.904-2.28c0-0.289,0.004-0.617,0.016-0.982
		c0.01-0.365,0.021-0.74,0.037-1.125c0.014-0.385,0.027-0.766,0.037-1.141s0.016-0.722,0.016-1.042l-1.051,0.015
		c0.029-0.119,0.045-0.244,0.045-0.375c0-0.119-0.016-0.254-0.045-0.404l1.051,0.045c0-0.311-0.006-0.6-0.016-0.87
		s-0.025-0.595-0.045-0.976c0.35-0.139,0.695-0.287,1.035-0.441c0.34-0.155,0.68-0.318,1.02-0.488l0.15,0.105
		c-0.02,0.16-0.037,0.348-0.053,0.562s-0.029,0.439-0.045,0.675s-0.025,0.476-0.029,0.72c-0.006,0.246-0.008,0.479-0.008,0.697
		l1.32-0.029C176.424,119.353,176.41,119.487,176.41,119.606z"/>
	<path fill="#8E8580" d="M178.584,120.237c-0.139-0.721-0.244-1.293-0.314-1.718s-0.115-0.739-0.135-0.944s-0.029-0.383-0.029-0.533
		c0-0.359,0.113-0.65,0.344-0.87s0.535-0.33,0.916-0.33c0.379,0,0.684,0.11,0.914,0.33s0.346,0.511,0.346,0.87
		c0,0.15-0.01,0.328-0.029,0.533c-0.021,0.205-0.066,0.52-0.137,0.944c-0.068,0.425-0.174,0.997-0.314,1.718
		c-0.141,0.72-0.33,1.67-0.57,2.85h-0.42C178.914,121.907,178.725,120.957,178.584,120.237z M178.494,124.481
		c0.24-0.239,0.531-0.359,0.871-0.359s0.629,0.12,0.869,0.359c0.24,0.24,0.361,0.531,0.361,0.871s-0.121,0.622-0.361,0.848
		c-0.24,0.225-0.529,0.337-0.869,0.337s-0.631-0.112-0.871-0.337c-0.24-0.226-0.359-0.508-0.359-0.848
		S178.254,124.722,178.494,124.481z"/>
</g>
</svg>
