<?xml version="1.0" encoding="utf-8"?>
<!-- Generator: Adobe Illustrator 15.1.0, SVG Export Plug-In . SVG Version: 6.00 Build 0)  -->
<!DOCTYPE svg PUBLIC "-//W3C//DTD SVG 1.1//EN" "http://www.w3.org/Graphics/SVG/1.1/DTD/svg11.dtd">
<svg version="1.1" id="Layer_1" xmlns="http://www.w3.org/2000/svg" xmlns:xlink="http://www.w3.org/1999/xlink" x="0px" y="0px"
	 width="16px" height="16px" viewBox="0 0 16 16" enable-background="new 0 0 16 16" xml:space="preserve">
<path d="M8.001,0.392c0.242,0,0.438,0.196,0.438,0.439v0.451c3.621,0.196,6.582,2.813,6.582,6.131c0,0,0,0.438-0.438,0.438
	c-0.131,0-0.311-0.127-0.311-0.127l-0.002-0.003L14.247,7.7c-0.15-0.131-0.312-0.247-0.486-0.346
	c-0.416-0.244-0.889-0.375-1.373-0.381c-0.561,0-1.033,0.187-1.373,0.381c-0.172,0.099-0.336,0.215-0.486,0.346l-0.023,0.021v0.002
	c0,0-0.182,0.128-0.311,0.128c-0.131,0-0.309-0.127-0.309-0.127L9.882,7.721L9.86,7.7C9.71,7.569,9.546,7.453,9.372,7.354
	C9.083,7.188,8.769,7.071,8.438,7.013v4.246H8.001h0.438v0.033l-0.004,0.074c-0.023,0.336-0.113,0.664-0.262,0.967
	c-0.152,0.311-0.383,0.578-0.67,0.771c-0.328,0.219-0.743,0.348-1.258,0.348c-0.516,0-0.932-0.129-1.259-0.348
	c-0.287-0.193-0.518-0.461-0.67-0.771c-0.159-0.324-0.25-0.678-0.265-1.041v-0.021l-0.001-0.008v-0.002c0,0,0-0.002,0.438-0.002
	H4.051v-0.439c0-0.242,0.196-0.438,0.438-0.438c0.243,0,0.439,0.195,0.439,0.438v0.445l0.003,0.037
	c0.015,0.223,0.073,0.438,0.171,0.637c0.083,0.168,0.201,0.322,0.371,0.436c0.166,0.111,0.408,0.201,0.771,0.201
	c0.362,0,0.604-0.09,0.771-0.201c0.17-0.113,0.288-0.268,0.373-0.436c0.103-0.211,0.161-0.439,0.173-0.674V7.013
	C7.232,7.071,6.917,7.188,6.627,7.354C6.445,7.458,6.275,7.581,6.118,7.721L6.115,7.724c0,0-0.178,0.127-0.31,0.127
	c-0.131,0-0.309-0.127-0.309-0.127L5.493,7.721c-0.156-0.14-0.327-0.263-0.509-0.366C4.568,7.11,4.095,6.979,3.612,6.974
	c-0.561,0-1.033,0.187-1.373,0.381C2.058,7.458,1.888,7.581,1.73,7.721L1.727,7.724c0,0-0.177,0.127-0.309,0.127
	c-0.438,0-0.438-0.438-0.438-0.438c0-3.318,2.962-5.935,6.582-6.131V0.831C7.562,0.588,7.757,0.392,8.001,0.392z"/>
<path d="M14,8.996v4.587c0,0.276-0.224,0.5-0.5,0.5h-11c-0.276,0-0.5-0.224-0.5-0.5V9.088C1.822,9.226,1.637,9.333,1.417,9.333
	c-0.13,0-0.273-0.046-0.417-0.11v4.36c0,0.828,0.671,1.5,1.5,1.5h11c0.828,0,1.5-0.672,1.5-1.5v-4.47
	C14.729,9.187,14.452,9.139,14,8.996z"/>
</svg>
